<svg xmlns="http://www.w3.org/2000/svg" width="1440" height="1024" viewBox="0 0 1440 1024" fill="none"><title>BOMS · Item profile (en)</title><defs><filter id="cardShadow" x="-40%" y="-40%" width="180%" height="180%"><feDropShadow dx="0" dy="1" stdDeviation="1" flood-color="#1B1C1A" flood-opacity="0.04"/><feDropShadow dx="0" dy="8" stdDeviation="12.0" flood-color="#1B1C1A" flood-opacity="0.05"/></filter></defs><rect width="1440" height="1024" fill="#FBF9F6"/><rect x="0.00" y="0.00" width="288.00" height="1024.00" fill="#F5F3F0"/><line x1="288.00" y1="0.00" x2="288.00" y2="0.00" stroke="#E8E4DF" stroke-width="1"/><line x1="288.00" y1="0" x2="288.00" y2="1024" stroke="#E8E4DF" stroke-width="1"/><rect x="24.00" y="28.00" width="40.00" height="40.00" fill="#73594D" rx="12"/><g transform="translate(34.00,38.00) scale(0.8333)" stroke="#FFFFFF" stroke-width="1.92" stroke-linecap="round" stroke-linejoin="round" fill="none"><path d="m12 3 2.2 6.3L21 11l-6.8 1.7L12 19l-2.2-6.3L3 11l6.8-1.7z"/></g><text x="76.00" y="44.48" font-family="Inter, -apple-system, 'Segoe UI', Roboto, sans-serif" font-size="16" font-weight="600" letter-spacing="-0.1" fill="#1B1C1A" text-anchor="start">AL DUBAI</text><text x="76.00" y="61.36" font-family="Inter, -apple-system, 'Segoe UI', Roboto, sans-serif" font-size="12" font-weight="400" letter-spacing="0.0" fill="#6B6B6B" text-anchor="start">Bridal · BOMS</text><line x1="24.00" y1="88.00" x2="264.00" y2="88.00" stroke="#E8E4DF" stroke-width="1"/><text x="28.00" y="116.58" font-family="Inter, -apple-system, 'Segoe UI', Roboto, sans-serif" font-size="11" font-weight="600" letter-spacing="0.6" fill="#6B6B6B" text-anchor="start">MAIN</text><g transform="translate(32.00,138.00) scale(0.7500)" stroke="#4F4440" stroke-width="2.27" stroke-linecap="round" stroke-linejoin="round" fill="none"><path d="M3 10.5 12 3l9 7.5V21a1 1 0 0 1-1 1h-5v-7H9v7H4a1 1 0 0 1-1-1z"/></g><text x="62.00" y="149.92" font-family="Inter, -apple-system, 'Segoe UI', Roboto, sans-serif" font-size="14" font-weight="400" letter-spacing="0.0" fill="#4F4440" text-anchor="start">Home</text><text x="28.00" y="196.58" font-family="Inter, -apple-system, 'Segoe UI', Roboto, sans-serif" font-size="11" font-weight="600" letter-spacing="0.6" fill="#6B6B6B" text-anchor="start">OPERATIONS</text><rect x="16.00" y="204.00" width="256.00" height="44.00" fill="#FFDDB7" rx="8"/><g transform="translate(32.00,218.00) scale(0.7500)" stroke="#2A1800" stroke-width="2.27" stroke-linecap="round" stroke-linejoin="round" fill="none"><path d="M21 8 12 3 3 8v8l9 5 9-5zM3 8l9 5 9-5M12 13v8"/></g><text x="62.00" y="229.92" font-family="Inter, -apple-system, 'Segoe UI', Roboto, sans-serif" font-size="14" font-weight="540" letter-spacing="0.0" fill="#2A1800" text-anchor="start">Inventory</text><rect x="60.00" y="256.00" width="3.00" height="16.00" fill="#73594D" rx="2"/><text x="74.00" y="267.14" font-family="Inter, -apple-system, 'Segoe UI', Roboto, sans-serif" font-size="13" font-weight="400" letter-spacing="0.0" fill="#1B1C1A" text-anchor="start">Items</text><text x="74.00" y="297.14" font-family="Inter, -apple-system, 'Segoe UI', Roboto, sans-serif" font-size="13" font-weight="400" letter-spacing="0.0" fill="#6B6B6B" text-anchor="start">Stock ledger</text><text x="74.00" y="327.14" font-family="Inter, -apple-system, 'Segoe UI', Roboto, sans-serif" font-size="13" font-weight="400" letter-spacing="0.0" fill="#6B6B6B" text-anchor="start">Reservations</text><text x="74.00" y="357.14" font-family="Inter, -apple-system, 'Segoe UI', Roboto, sans-serif" font-size="13" font-weight="400" letter-spacing="0.0" fill="#6B6B6B" text-anchor="start">Transfers</text><text x="74.00" y="387.14" font-family="Inter, -apple-system, 'Segoe UI', Roboto, sans-serif" font-size="13" font-weight="400" letter-spacing="0.0" fill="#6B6B6B" text-anchor="start">Reports</text><g transform="translate(32.00,412.00) scale(0.7500)" stroke="#4F4440" stroke-width="2.27" stroke-linecap="round" stroke-linejoin="round" fill="none"><path d="M8 21a1 1 0 1 0 0-2 1 1 0 0 0 0 2M19 21a1 1 0 1 0 0-2 1 1 0 0 0 0 2M2 3h2.5l2.6 12.4A2 2 0 0 0 9 17h9.3a2 2 0 0 0 2-1.6L22 7H5.2"/></g><text x="62.00" y="423.92" font-family="Inter, -apple-system, 'Segoe UI', Roboto, sans-serif" font-size="14" font-weight="400" letter-spacing="0.0" fill="#4F4440" text-anchor="start">Sales</text><rect x="232.00" y="412.00" width="28.00" height="20.00" fill="#73594D" rx="999"/><text x="246.00" y="424.36" font-family="Inter, -apple-system, 'Segoe UI', Roboto, sans-serif" font-size="12" font-weight="400" letter-spacing="0.0" fill="#FFFFFF" text-anchor="middle">8</text><g transform="translate(32.00,456.00) scale(0.7500)" stroke="#4F4440" stroke-width="2.27" stroke-linecap="round" stroke-linejoin="round" fill="none"><path d="M10 17h4V5H2v12h2M14 9h4l4 4v4h-2M4.5 19a1.5 1.5 0 1 0 0-3 1.5 1.5 0 0 0 0 3M18.5 19a1.5 1.5 0 1 0 0-3 1.5 1.5 0 0 0 0 3"/></g><text x="62.00" y="467.92" font-family="Inter, -apple-system, 'Segoe UI', Roboto, sans-serif" font-size="14" font-weight="400" letter-spacing="0.0" fill="#4F4440" text-anchor="start">Procurement</text><text x="28.00" y="514.58" font-family="Inter, -apple-system, 'Segoe UI', Roboto, sans-serif" font-size="11" font-weight="600" letter-spacing="0.6" fill="#6B6B6B" text-anchor="start">MONEY</text><g transform="translate(32.00,536.00) scale(0.7500)" stroke="#4F4440" stroke-width="2.27" stroke-linecap="round" stroke-linejoin="round" fill="none"><path d="M19 7V5a2 2 0 0 0-2-2H5a2 2 0 0 0 0 4h14a2 2 0 0 1 2 2v8a2 2 0 0 1-2 2H5a2 2 0 0 1-2-2V5M16 12h3"/></g><text x="62.00" y="547.92" font-family="Inter, -apple-system, 'Segoe UI', Roboto, sans-serif" font-size="14" font-weight="400" letter-spacing="0.0" fill="#4F4440" text-anchor="start">Finance</text><text x="28.00" y="594.58" font-family="Inter, -apple-system, 'Segoe UI', Roboto, sans-serif" font-size="11" font-weight="600" letter-spacing="0.6" fill="#6B6B6B" text-anchor="start">INSIGHT</text><g transform="translate(32.00,616.00) scale(0.7500)" stroke="#4F4440" stroke-width="2.27" stroke-linecap="round" stroke-linejoin="round" fill="none"><path d="M3 3v16a2 2 0 0 0 2 2h16M7 15l3-4 3 2 4-6"/></g><text x="62.00" y="627.92" font-family="Inter, -apple-system, 'Segoe UI', Roboto, sans-serif" font-size="14" font-weight="400" letter-spacing="0.0" fill="#4F4440" text-anchor="start">Reports</text><text x="28.00" y="674.58" font-family="Inter, -apple-system, 'Segoe UI', Roboto, sans-serif" font-size="11" font-weight="600" letter-spacing="0.6" fill="#6B6B6B" text-anchor="start">SYSTEM</text><g transform="translate(32.00,696.00) scale(0.7500)" stroke="#4F4440" stroke-width="2.27" stroke-linecap="round" stroke-linejoin="round" fill="none"><path d="M12.2 2h-.4a2 2 0 0 0-2 2 1.7 1.7 0 0 1-2.6 1.5 2 2 0 0 0-2.4.3l-.3.3a2 2 0 0 0-.3 2.4A1.7 1.7 0 0 1 4 11.8a2 2 0 0 0-2 2v.4a2 2 0 0 0 2 2 1.7 1.7 0 0 1 1.5 2.6 2 2 0 0 0 .3 2.4l.3.3M12 15a3 3 0 1 0 0-6 3 3 0 0 0 0 6"/></g><text x="62.00" y="707.92" font-family="Inter, -apple-system, 'Segoe UI', Roboto, sans-serif" font-size="14" font-weight="400" letter-spacing="0.0" fill="#4F4440" text-anchor="start">Settings</text><line x1="24.00" y1="892.00" x2="264.00" y2="892.00" stroke="#E8E4DF" stroke-width="1"/><rect x="24.00" y="908.00" width="240.00" height="40.00" fill="#FFFFFF" rx="12" stroke="#E8E4DF" stroke-width="1"/><g transform="translate(38.00,919.00) scale(0.7500)" stroke="#6B6B6B" stroke-width="2.13" stroke-linecap="round" stroke-linejoin="round" fill="none"><path d="M22 8.4V21H2V8.4a2 2 0 0 1 1.2-1.8l8-3.6a2 2 0 0 1 1.6 0l8 3.6A2 2 0 0 1 22 8.4M6 18h12v-6H6z"/></g><text x="66.00" y="930.14" font-family="Inter, -apple-system, 'Segoe UI', Roboto, sans-serif" font-size="13" font-weight="400" letter-spacing="0.0" fill="#4F4440" text-anchor="start">Main branch</text><g transform="translate(240.00,919.00) scale(0.6667)" stroke="#6B6B6B" stroke-width="2.40" stroke-linecap="round" stroke-linejoin="round" fill="none"><path d="m6 9 6 6 6-6"/></g><rect x="24.00" y="960.00" width="36.00" height="36.00" fill="#C9A89A" rx="999"/><text x="42.00" y="980.92" font-family="Inter, -apple-system, 'Segoe UI', Roboto, sans-serif" font-size="14" font-weight="540" letter-spacing="0.0" fill="#FFFFFF" text-anchor="middle">A</text><text x="70.00" y="973.92" font-family="Inter, -apple-system, 'Segoe UI', Roboto, sans-serif" font-size="14" font-weight="540" letter-spacing="0.0" fill="#1B1C1A" text-anchor="start">Ahmad Zaki</text><text x="70.00" y="990.36" font-family="Inter, -apple-system, 'Segoe UI', Roboto, sans-serif" font-size="12" font-weight="400" letter-spacing="0.0" fill="#6B6B6B" text-anchor="start">Owner</text><rect x="288.00" y="0.00" width="1152.00" height="64.00" fill="#FBF9F6"/><line x1="288.00" y1="64.00" x2="1440.00" y2="64.00" stroke="#E8E4DF" stroke-width="1"/><rect x="320.00" y="14.00" width="420.00" height="36.00" fill="#FFFFFF" rx="999" stroke="#E8E4DF" stroke-width="1"/><g transform="translate(334.00,23.00) scale(0.7500)" stroke="#6B6B6B" stroke-width="2.27" stroke-linecap="round" stroke-linejoin="round" fill="none"><path d="M11 19a8 8 0 1 0 0-16 8 8 0 0 0 0 16M21 21l-4.3-4.3"/></g><text x="362.00" y="34.14" font-family="Inter, -apple-system, 'Segoe UI', Roboto, sans-serif" font-size="13" font-weight="400" letter-spacing="0.0" fill="#9CA3AF" text-anchor="start">Search items, orders, customers…</text><rect x="678.00" y="22.00" width="48.00" height="20.00" fill="#EAE8E5" rx="8"/><text x="702.00" y="33.36" font-family="Inter, -apple-system, 'Segoe UI', Roboto, sans-serif" font-size="12" font-weight="400" letter-spacing="0.0" fill="#6B6B6B" text-anchor="middle">⌘K</text><rect x="1296.00" y="14.00" width="112.00" height="36.00" fill="#FFFFFF" rx="999" stroke="#E8E4DF" stroke-width="1"/><rect x="1304.00" y="20.00" width="24.00" height="24.00" fill="#C9A89A" rx="999"/><text x="1316.00" y="34.36" font-family="Inter, -apple-system, 'Segoe UI', Roboto, sans-serif" font-size="12" font-weight="400" letter-spacing="0.0" fill="#FFFFFF" text-anchor="middle">A</text><text x="1334.00" y="34.14" font-family="Inter, -apple-system, 'Segoe UI', Roboto, sans-serif" font-size="13" font-weight="400" letter-spacing="0.0" fill="#1B1C1A" text-anchor="start">Ahmad</text><g transform="translate(1376.00,23.00) scale(0.6667)" stroke="#6B6B6B" stroke-width="2.40" stroke-linecap="round" stroke-linejoin="round" fill="none"><path d="m6 9 6 6 6-6"/></g><rect x="1248.00" y="14.00" width="36.00" height="36.00" fill="#FFFFFF" rx="12"/><g transform="translate(1257.00,23.00) scale(0.7500)" stroke="#4F4440" stroke-width="2.13" stroke-linecap="round" stroke-linejoin="round" fill="none"><path d="M18 8a6 6 0 1 0-12 0c0 7-3 9-3 9h18s-3-2-3-9M13.7 21a2 2 0 0 1-3.4 0"/></g><rect x="1274.00" y="16.00" width="8.00" height="8.00" fill="#B54A4A" rx="4"/><rect x="1132.00" y="14.00" width="108.00" height="36.00" fill="#FFFFFF" rx="999" stroke="#E8E4DF" stroke-width="1"/><text x="1148.00" y="34.14" font-family="Inter, -apple-system, 'Segoe UI', Roboto, sans-serif" font-size="13" font-weight="400" letter-spacing="0.0" fill="#4F4440" text-anchor="start">English</text><g transform="translate(1216.00,23.00) scale(0.6667)" stroke="#6B6B6B" stroke-width="2.40" stroke-linecap="round" stroke-linejoin="round" fill="none"><path d="m6 9 6 6 6-6"/></g><text x="320.00" y="105.36" font-family="Inter, -apple-system, 'Segoe UI', Roboto, sans-serif" font-size="12" font-weight="400" letter-spacing="0.0" fill="#6B6B6B" text-anchor="start">Inventory  /  Items  /  ADF26-0042</text><text x="320.00" y="138.72" font-family="Inter, -apple-system, 'Segoe UI', Roboto, sans-serif" font-size="24" font-weight="650" letter-spacing="-0.3" fill="#1B1C1A" text-anchor="start">White A-Line Gown</text><text x="320.00" y="166.14" font-family="Inter, -apple-system, 'Segoe UI', Roboto, sans-serif" font-size="13" font-weight="400" letter-spacing="0.0" fill="#6B6B6B" text-anchor="start">SKU ADF26-0042 · Wedding Dress · A-Line · Size M · Bought 04 Feb 2026</text><rect x="1296.00" y="118.00" width="112.00" height="40.00" fill="#73594D" rx="999"/><text x="1352.00" y="140.92" font-family="Inter, -apple-system, 'Segoe UI', Roboto, sans-serif" font-size="14" font-weight="540" letter-spacing="0.0" fill="#FFFFFF" text-anchor="middle">Edit item</text><rect x="1172.80" y="118.00" width="113.20" height="40.00" fill="#FFFFFF" rx="999" stroke="#E8E4DF" stroke-width="1"/><g transform="translate(1190.80,130.00) scale(0.6667)" stroke="#1B1C1A" stroke-width="2.70" stroke-linecap="round" stroke-linejoin="round" fill="none"><path d="M19 21l-7-4-7 4V5a2 2 0 0 1 2-2h10a2 2 0 0 1 2 2z"/></g><text x="1239.40" y="140.92" font-family="Inter, -apple-system, 'Segoe UI', Roboto, sans-serif" font-size="14" font-weight="540" letter-spacing="0.0" fill="#1B1C1A" text-anchor="middle">Reserve</text><rect x="1050.80" y="118.00" width="112.00" height="40.00" fill="#FFFFFF" rx="999" stroke="#E8E4DF" stroke-width="1"/><text x="1106.80" y="140.92" font-family="Inter, -apple-system, 'Segoe UI', Roboto, sans-serif" font-size="14" font-weight="540" letter-spacing="0.0" fill="#1B1C1A" text-anchor="middle">Stock in</text><line x1="320.00" y1="236.00" x2="1408.00" y2="236.00" stroke="#E8E4DF" stroke-width="1"/><text x="368.00" y="218.92" font-family="Inter, -apple-system, 'Segoe UI', Roboto, sans-serif" font-size="14" font-weight="540" letter-spacing="0.0" fill="#1B1C1A" text-anchor="middle">Overview</text><rect x="320.00" y="234.00" width="96.00" height="2.5" rx="1.25" fill="#73594D"/><text x="493.20" y="218.92" font-family="Inter, -apple-system, 'Segoe UI', Roboto, sans-serif" font-size="14" font-weight="400" letter-spacing="0.0" fill="#6B6B6B" text-anchor="middle">Stock &amp; movement</text><text x="632.80" y="218.92" font-family="Inter, -apple-system, 'Segoe UI', Roboto, sans-serif" font-size="14" font-weight="400" letter-spacing="0.0" fill="#6B6B6B" text-anchor="middle">Reservations</text><text x="743.20" y="218.92" font-family="Inter, -apple-system, 'Segoe UI', Roboto, sans-serif" font-size="14" font-weight="400" letter-spacing="0.0" fill="#6B6B6B" text-anchor="middle">Rentals</text><text x="839.20" y="218.92" font-family="Inter, -apple-system, 'Segoe UI', Roboto, sans-serif" font-size="14" font-weight="400" letter-spacing="0.0" fill="#6B6B6B" text-anchor="middle">Photos</text><text x="935.20" y="218.92" font-family="Inter, -apple-system, 'Segoe UI', Roboto, sans-serif" font-size="14" font-weight="400" letter-spacing="0.0" fill="#6B6B6B" text-anchor="middle">Audit</text><rect x="320.00" y="256.00" width="360.00" height="280.00" fill="#FFFFFF" rx="16" stroke="#E8E4DF" stroke-width="1" filter="url(#cardShadow)"/><rect x="336.00" y="272.00" width="328.00" height="200.00" fill="#F5F3F0" rx="12"/><g transform="translate(484.00,356.00) scale(1.3333)" stroke="#9CA3AF" stroke-width="1.05" stroke-linecap="round" stroke-linejoin="round" fill="none"><path d="M3 5h18v14H3zM8.5 11a1.5 1.5 0 1 0 0-3 1.5 1.5 0 0 0 0 3M21 15l-5-5L5 19"/></g><rect x="336.00" y="484.00" width="76.00" height="40.00" fill="#F5F3F0" rx="8"/><rect x="420.00" y="484.00" width="76.00" height="40.00" fill="#F5F3F0" rx="8"/><rect x="504.00" y="484.00" width="76.00" height="40.00" fill="#F5F3F0" rx="8"/><rect x="588.00" y="484.00" width="76.00" height="40.00" fill="#F5F3F0" rx="8"/><rect x="320.00" y="556.00" width="360.00" height="196.00" fill="#FFFFFF" rx="16" stroke="#E8E4DF" stroke-width="1" filter="url(#cardShadow)"/><text x="344.00" y="584.58" font-family="Inter, -apple-system, 'Segoe UI', Roboto, sans-serif" font-size="11" font-weight="600" letter-spacing="0.6" fill="#6B6B6B" text-anchor="start">BARCODE &amp; QR — GENERATED FROM THE SKU</text><g transform="translate(344.00,604.00)"><rect x="0.00" y="0" width="1.63" height="66.00" fill="#1B1C1A"/><rect x="2.44" y="0" width="0.81" height="66.00" fill="#1B1C1A"/><rect x="4.88" y="0" width="2.44" height="66.00" fill="#1B1C1A"/><rect x="8.13" y="0" width="2.44" height="66.00" fill="#1B1C1A"/><rect x="11.39" y="0" width="0.81" height="66.00" fill="#1B1C1A"/><rect x="13.01" y="0" width="0.81" height="66.00" fill="#1B1C1A"/><rect x="14.64" y="0" width="2.44" height="66.00" fill="#1B1C1A"/><rect x="17.89" y="0" width="0.81" height="66.00" fill="#1B1C1A"/><rect x="19.52" y="0" width="0.81" height="66.00" fill="#1B1C1A"/><rect x="21.15" y="0" width="0.81" height="66.00" fill="#1B1C1A"/><rect x="22.77" y="0" width="0.81" height="66.00" fill="#1B1C1A"/><rect x="26.02" y="0" width="2.44" height="66.00" fill="#1B1C1A"/><rect x="29.28" y="0" width="0.81" height="66.00" fill="#1B1C1A"/><rect x="32.53" y="0" width="0.81" height="66.00" fill="#1B1C1A"/><rect x="34.16" y="0" width="2.44" height="66.00" fill="#1B1C1A"/><rect x="39.04" y="0" width="0.81" height="66.00" fill="#1B1C1A"/><rect x="42.29" y="0" width="0.81" height="66.00" fill="#1B1C1A"/><rect x="45.54" y="0" width="0.81" height="66.00" fill="#1B1C1A"/><rect x="48.80" y="0" width="0.81" height="66.00" fill="#1B1C1A"/><rect x="52.05" y="0" width="2.44" height="66.00" fill="#1B1C1A"/><rect x="55.30" y="0" width="0.81" height="66.00" fill="#1B1C1A"/><rect x="56.93" y="0" width="2.44" height="66.00" fill="#1B1C1A"/><rect x="61.81" y="0" width="0.81" height="66.00" fill="#1B1C1A"/><rect x="63.44" y="0" width="0.81" height="66.00" fill="#1B1C1A"/><rect x="66.69" y="0" width="0.81" height="66.00" fill="#1B1C1A"/><rect x="68.32" y="0" width="2.44" height="66.00" fill="#1B1C1A"/><rect x="73.20" y="0" width="0.81" height="66.00" fill="#1B1C1A"/><rect x="76.45" y="0" width="0.81" height="66.00" fill="#1B1C1A"/><rect x="78.07" y="0" width="0.81" height="66.00" fill="#1B1C1A"/><rect x="79.70" y="0" width="2.44" height="66.00" fill="#1B1C1A"/><rect x="84.58" y="0" width="0.81" height="66.00" fill="#1B1C1A"/><rect x="86.21" y="0" width="2.44" height="66.00" fill="#1B1C1A"/><rect x="91.09" y="0" width="0.81" height="66.00" fill="#1B1C1A"/><rect x="94.34" y="0" width="2.44" height="66.00" fill="#1B1C1A"/><rect x="99.22" y="0" width="0.81" height="66.00" fill="#1B1C1A"/><rect x="102.47" y="0" width="0.81" height="66.00" fill="#1B1C1A"/><rect x="105.73" y="0" width="2.44" height="66.00" fill="#1B1C1A"/><rect x="110.61" y="0" width="2.44" height="66.00" fill="#1B1C1A"/><rect x="113.86" y="0" width="0.81" height="66.00" fill="#1B1C1A"/><rect x="117.11" y="0" width="2.44" height="66.00" fill="#1B1C1A"/><rect x="121.99" y="0" width="0.81" height="66.00" fill="#1B1C1A"/><rect x="125.24" y="0" width="2.44" height="66.00" fill="#1B1C1A"/><rect x="128.50" y="0" width="0.81" height="66.00" fill="#1B1C1A"/><rect x="130.12" y="0" width="0.81" height="66.00" fill="#1B1C1A"/><rect x="133.38" y="0" width="0.81" height="66.00" fill="#1B1C1A"/><rect x="136.63" y="0" width="0.81" height="66.00" fill="#1B1C1A"/><rect x="138.26" y="0" width="0.81" height="66.00" fill="#1B1C1A"/><rect x="141.51" y="0" width="0.81" height="66.00" fill="#1B1C1A"/><rect x="144.76" y="0" width="2.44" height="66.00" fill="#1B1C1A"/><rect x="148.02" y="0" width="0.81" height="66.00" fill="#1B1C1A"/><rect x="151.27" y="0" width="2.44" height="66.00" fill="#1B1C1A"/><rect x="156.15" y="0" width="2.44" height="66.00" fill="#1B1C1A"/><rect x="159.40" y="0" width="0.81" height="66.00" fill="#1B1C1A"/><rect x="162.66" y="0" width="2.44" height="66.00" fill="#1B1C1A"/><rect x="165.91" y="0" width="0.81" height="66.00" fill="#1B1C1A"/><rect x="167.54" y="0" width="0.81" height="66.00" fill="#1B1C1A"/><rect x="169.16" y="0" width="2.44" height="66.00" fill="#1B1C1A"/><rect x="174.04" y="0" width="0.81" height="66.00" fill="#1B1C1A"/><rect x="177.29" y="0" width="2.44" height="66.00" fill="#1B1C1A"/><rect x="180.55" y="0" width="2.44" height="66.00" fill="#1B1C1A"/><rect x="183.80" y="0" width="0.81" height="66.00" fill="#1B1C1A"/><rect x="187.05" y="0" width="2.44" height="66.00" fill="#1B1C1A"/><rect x="190.31" y="0" width="1.63" height="66.00" fill="#1B1C1A"/><rect x="194.37" y="0" width="1.63" height="66.00" fill="#1B1C1A"/></g><text x="442.00" y="683.36" font-family="'JetBrains Mono', 'SF Mono', Menlo, monospace" font-size="12" fill="#6B6B6B" text-anchor="middle" direction="ltr" unicode-bidi="isolate">ADF26-0042</text><g transform="translate(564.00,604.00)"><rect width="92" height="92" fill="#FFFFFF"/><rect x="36.58" y="6.44" width="3.77" height="3.77" fill="#1B1C1A"/><rect x="36.58" y="10.21" width="3.77" height="3.77" fill="#1B1C1A"/><rect x="44.12" y="10.21" width="3.77" height="3.77" fill="#1B1C1A"/><rect x="51.65" y="10.21" width="3.77" height="3.77" fill="#1B1C1A"/><rect x="51.65" y="13.98" width="3.77" height="3.77" fill="#1B1C1A"/><rect x="44.12" y="17.74" width="3.77" height="3.77" fill="#1B1C1A"/><rect x="47.88" y="17.74" width="3.77" height="3.77" fill="#1B1C1A"/><rect x="51.65" y="17.74" width="3.77" height="3.77" fill="#1B1C1A"/><rect x="36.58" y="21.51" width="3.77" height="3.77" fill="#1B1C1A"/><rect x="47.88" y="21.51" width="3.77" height="3.77" fill="#1B1C1A"/><rect x="51.65" y="21.51" width="3.77" height="3.77" fill="#1B1C1A"/><rect x="40.35" y="25.28" width="3.77" height="3.77" fill="#1B1C1A"/><rect x="51.65" y="25.28" width="3.77" height="3.77" fill="#1B1C1A"/><rect x="36.58" y="29.05" width="3.77" height="3.77" fill="#1B1C1A"/><rect x="44.12" y="29.05" width="3.77" height="3.77" fill="#1B1C1A"/><rect x="44.12" y="32.81" width="3.77" height="3.77" fill="#1B1C1A"/><rect x="51.65" y="32.81" width="3.77" height="3.77" fill="#1B1C1A"/><rect x="6.44" y="36.58" width="3.77" height="3.77" fill="#1B1C1A"/><rect x="10.21" y="36.58" width="3.77" height="3.77" fill="#1B1C1A"/><rect x="17.74" y="36.58" width="3.77" height="3.77" fill="#1B1C1A"/><rect x="25.28" y="36.58" width="3.77" height="3.77" fill="#1B1C1A"/><rect x="40.35" y="36.58" width="3.77" height="3.77" fill="#1B1C1A"/><rect x="44.12" y="36.58" width="3.77" height="3.77" fill="#1B1C1A"/><rect x="47.88" y="36.58" width="3.77" height="3.77" fill="#1B1C1A"/><rect x="51.65" y="36.58" width="3.77" height="3.77" fill="#1B1C1A"/><rect x="55.42" y="36.58" width="3.77" height="3.77" fill="#1B1C1A"/><rect x="74.26" y="36.58" width="3.77" height="3.77" fill="#1B1C1A"/><rect x="81.79" y="36.58" width="3.77" height="3.77" fill="#1B1C1A"/><rect x="13.98" y="40.35" width="3.77" height="3.77" fill="#1B1C1A"/><rect x="29.05" y="40.35" width="3.77" height="3.77" fill="#1B1C1A"/><rect x="32.81" y="40.35" width="3.77" height="3.77" fill="#1B1C1A"/><rect x="36.58" y="40.35" width="3.77" height="3.77" fill="#1B1C1A"/><rect x="44.12" y="40.35" width="3.77" height="3.77" fill="#1B1C1A"/><rect x="55.42" y="40.35" width="3.77" height="3.77" fill="#1B1C1A"/><rect x="59.19" y="40.35" width="3.77" height="3.77" fill="#1B1C1A"/><rect x="62.95" y="40.35" width="3.77" height="3.77" fill="#1B1C1A"/><rect x="70.49" y="40.35" width="3.77" height="3.77" fill="#1B1C1A"/><rect x="74.26" y="40.35" width="3.77" height="3.77" fill="#1B1C1A"/><rect x="78.02" y="40.35" width="3.77" height="3.77" fill="#1B1C1A"/><rect x="6.44" y="44.12" width="3.77" height="3.77" fill="#1B1C1A"/><rect x="10.21" y="44.12" width="3.77" height="3.77" fill="#1B1C1A"/><rect x="17.74" y="44.12" width="3.77" height="3.77" fill="#1B1C1A"/><rect x="21.51" y="44.12" width="3.77" height="3.77" fill="#1B1C1A"/><rect x="32.81" y="44.12" width="3.77" height="3.77" fill="#1B1C1A"/><rect x="36.58" y="44.12" width="3.77" height="3.77" fill="#1B1C1A"/><rect x="44.12" y="44.12" width="3.77" height="3.77" fill="#1B1C1A"/><rect x="59.19" y="44.12" width="3.77" height="3.77" fill="#1B1C1A"/><rect x="70.49" y="44.12" width="3.77" height="3.77" fill="#1B1C1A"/><rect x="78.02" y="44.12" width="3.77" height="3.77" fill="#1B1C1A"/><rect x="10.21" y="47.88" width="3.77" height="3.77" fill="#1B1C1A"/><rect x="13.98" y="47.88" width="3.77" height="3.77" fill="#1B1C1A"/><rect x="17.74" y="47.88" width="3.77" height="3.77" fill="#1B1C1A"/><rect x="21.51" y="47.88" width="3.77" height="3.77" fill="#1B1C1A"/><rect x="25.28" y="47.88" width="3.77" height="3.77" fill="#1B1C1A"/><rect x="40.35" y="47.88" width="3.77" height="3.77" fill="#1B1C1A"/><rect x="44.12" y="47.88" width="3.77" height="3.77" fill="#1B1C1A"/><rect x="55.42" y="47.88" width="3.77" height="3.77" fill="#1B1C1A"/><rect x="81.79" y="47.88" width="3.77" height="3.77" fill="#1B1C1A"/><rect x="10.21" y="51.65" width="3.77" height="3.77" fill="#1B1C1A"/><rect x="13.98" y="51.65" width="3.77" height="3.77" fill="#1B1C1A"/><rect x="36.58" y="51.65" width="3.77" height="3.77" fill="#1B1C1A"/><rect x="40.35" y="51.65" width="3.77" height="3.77" fill="#1B1C1A"/><rect x="74.26" y="51.65" width="3.77" height="3.77" fill="#1B1C1A"/><rect x="81.79" y="51.65" width="3.77" height="3.77" fill="#1B1C1A"/><rect x="36.58" y="55.42" width="3.77" height="3.77" fill="#1B1C1A"/><rect x="40.35" y="55.42" width="3.77" height="3.77" fill="#1B1C1A"/><rect x="44.12" y="55.42" width="3.77" height="3.77" fill="#1B1C1A"/><rect x="70.49" y="55.42" width="3.77" height="3.77" fill="#1B1C1A"/><rect x="78.02" y="55.42" width="3.77" height="3.77" fill="#1B1C1A"/><rect x="81.79" y="55.42" width="3.77" height="3.77" fill="#1B1C1A"/><rect x="51.65" y="59.19" width="3.77" height="3.77" fill="#1B1C1A"/><rect x="59.19" y="59.19" width="3.77" height="3.77" fill="#1B1C1A"/><rect x="66.72" y="59.19" width="3.77" height="3.77" fill="#1B1C1A"/><rect x="74.26" y="59.19" width="3.77" height="3.77" fill="#1B1C1A"/><rect x="81.79" y="59.19" width="3.77" height="3.77" fill="#1B1C1A"/><rect x="40.35" y="62.95" width="3.77" height="3.77" fill="#1B1C1A"/><rect x="44.12" y="62.95" width="3.77" height="3.77" fill="#1B1C1A"/><rect x="47.88" y="62.95" width="3.77" height="3.77" fill="#1B1C1A"/><rect x="55.42" y="62.95" width="3.77" height="3.77" fill="#1B1C1A"/><rect x="62.95" y="62.95" width="3.77" height="3.77" fill="#1B1C1A"/><rect x="81.79" y="62.95" width="3.77" height="3.77" fill="#1B1C1A"/><rect x="47.88" y="66.72" width="3.77" height="3.77" fill="#1B1C1A"/><rect x="51.65" y="66.72" width="3.77" height="3.77" fill="#1B1C1A"/><rect x="55.42" y="66.72" width="3.77" height="3.77" fill="#1B1C1A"/><rect x="59.19" y="66.72" width="3.77" height="3.77" fill="#1B1C1A"/><rect x="66.72" y="66.72" width="3.77" height="3.77" fill="#1B1C1A"/><rect x="81.79" y="66.72" width="3.77" height="3.77" fill="#1B1C1A"/><rect x="36.58" y="70.49" width="3.77" height="3.77" fill="#1B1C1A"/><rect x="47.88" y="70.49" width="3.77" height="3.77" fill="#1B1C1A"/><rect x="51.65" y="70.49" width="3.77" height="3.77" fill="#1B1C1A"/><rect x="55.42" y="70.49" width="3.77" height="3.77" fill="#1B1C1A"/><rect x="59.19" y="70.49" width="3.77" height="3.77" fill="#1B1C1A"/><rect x="78.02" y="70.49" width="3.77" height="3.77" fill="#1B1C1A"/><rect x="40.35" y="74.26" width="3.77" height="3.77" fill="#1B1C1A"/><rect x="44.12" y="74.26" width="3.77" height="3.77" fill="#1B1C1A"/><rect x="47.88" y="74.26" width="3.77" height="3.77" fill="#1B1C1A"/><rect x="51.65" y="74.26" width="3.77" height="3.77" fill="#1B1C1A"/><rect x="55.42" y="74.26" width="3.77" height="3.77" fill="#1B1C1A"/><rect x="62.95" y="74.26" width="3.77" height="3.77" fill="#1B1C1A"/><rect x="74.26" y="74.26" width="3.77" height="3.77" fill="#1B1C1A"/><rect x="78.02" y="74.26" width="3.77" height="3.77" fill="#1B1C1A"/><rect x="81.79" y="74.26" width="3.77" height="3.77" fill="#1B1C1A"/><rect x="44.12" y="78.02" width="3.77" height="3.77" fill="#1B1C1A"/><rect x="47.88" y="78.02" width="3.77" height="3.77" fill="#1B1C1A"/><rect x="55.42" y="78.02" width="3.77" height="3.77" fill="#1B1C1A"/><rect x="59.19" y="78.02" width="3.77" height="3.77" fill="#1B1C1A"/><rect x="62.95" y="78.02" width="3.77" height="3.77" fill="#1B1C1A"/><rect x="40.35" y="81.79" width="3.77" height="3.77" fill="#1B1C1A"/><rect x="55.42" y="81.79" width="3.77" height="3.77" fill="#1B1C1A"/><rect x="66.72" y="81.79" width="3.77" height="3.77" fill="#1B1C1A"/><rect x="78.02" y="81.79" width="3.77" height="3.77" fill="#1B1C1A"/><rect x="81.79" y="81.79" width="3.77" height="3.77" fill="#1B1C1A"/><rect x="6.44" y="6.44" width="26.37" height="26.37" fill="#1B1C1A"/><rect x="10.21" y="10.21" width="18.84" height="18.84" fill="#FFFFFF"/><rect x="13.98" y="13.98" width="11.30" height="11.30" fill="#1B1C1A"/><rect x="59.19" y="6.44" width="26.37" height="26.37" fill="#1B1C1A"/><rect x="62.95" y="10.21" width="18.84" height="18.84" fill="#FFFFFF"/><rect x="66.72" y="13.98" width="11.30" height="11.30" fill="#1B1C1A"/><rect x="6.44" y="59.19" width="26.37" height="26.37" fill="#1B1C1A"/><rect x="10.21" y="62.95" width="18.84" height="18.84" fill="#FFFFFF"/><rect x="13.98" y="66.72" width="11.30" height="11.30" fill="#1B1C1A"/></g><text x="610.00" y="715.36" font-family="Inter, -apple-system, 'Segoe UI', Roboto, sans-serif" font-size="12" font-weight="400" letter-spacing="0.0" fill="#6B6B6B" text-anchor="middle">QR = SKU</text><text x="344.00" y="707.36" font-family="Inter, -apple-system, 'Segoe UI', Roboto, sans-serif" font-size="12" font-weight="400" letter-spacing="0.0" fill="#6B6B6B" text-anchor="start">Code 128 · one scan resolves to one item</text><rect x="344.00" y="712.00" width="132.00" height="32.00" fill="#FFFFFF" rx="999" stroke="#E8E4DF" stroke-width="1"/><g transform="translate(362.00,720.00) scale(0.6667)" stroke="#1B1C1A" stroke-width="2.70" stroke-linecap="round" stroke-linejoin="round" fill="none"><path d="M6 9V2h12v7M6 18H4a2 2 0 0 1-2-2v-5a2 2 0 0 1 2-2h16a2 2 0 0 1 2 2v5a2 2 0 0 1-2 2h-2M6 14h12v8H6z"/></g><text x="420.00" y="730.92" font-family="Inter, -apple-system, 'Segoe UI', Roboto, sans-serif" font-size="14" font-weight="540" letter-spacing="0.0" fill="#1B1C1A" text-anchor="middle">Print label</text><rect x="484.00" y="712.00" width="124.00" height="32.00" fill="none" rx="999"/><g transform="translate(502.00,720.00) scale(0.6667)" stroke="#6B6B6B" stroke-width="2.70" stroke-linecap="round" stroke-linejoin="round" fill="none"><path d="M21 15v4a2 2 0 0 1-2 2H5a2 2 0 0 1-2-2v-4M7 10l5 5 5-5M12 15V3"/></g><text x="556.00" y="730.92" font-family="Inter, -apple-system, 'Segoe UI', Roboto, sans-serif" font-size="14" font-weight="540" letter-spacing="0.0" fill="#6B6B6B" text-anchor="middle">Download</text><rect x="704.00" y="260.00" width="83.40" height="28.00" fill="#EDF3EF" rx="999"/><text x="745.70" y="276.36" font-family="Inter, -apple-system, 'Segoe UI', Roboto, sans-serif" font-size="12" font-weight="400" letter-spacing="0.0" fill="#4A7C59" text-anchor="middle">Available</text><rect x="795.40" y="260.00" width="136.20" height="28.00" fill="#EDF3EF" rx="999"/><text x="863.50" y="276.36" font-family="Inter, -apple-system, 'Segoe UI', Roboto, sans-serif" font-size="12" font-weight="400" letter-spacing="0.0" fill="#4A7C59" text-anchor="middle">Lifecycle: active</text><rect x="939.60" y="260.00" width="96.60" height="28.00" fill="#F5F3F0" rx="999"/><text x="987.90" y="276.36" font-family="Inter, -apple-system, 'Segoe UI', Roboto, sans-serif" font-size="12" font-weight="400" letter-spacing="0.0" fill="#6B6B6B" text-anchor="middle">Sale 48,000</text><rect x="1044.20" y="260.00" width="103.20" height="28.00" fill="#FBF4E3" rx="999"/><text x="1095.80" y="276.36" font-family="Inter, -apple-system, 'Segoe UI', Roboto, sans-serif" font-size="12" font-weight="400" letter-spacing="0.0" fill="#795B36" text-anchor="middle">Rental 9,500</text><rect x="1155.40" y="260.00" width="109.80" height="28.00" fill="#FBF4E3" rx="999"/><text x="1210.30" y="276.36" font-family="Inter, -apple-system, 'Segoe UI', Roboto, sans-serif" font-size="12" font-weight="400" letter-spacing="0.0" fill="#C4A035" text-anchor="middle">Buffer 2 days</text><text x="704.00" y="312.58" font-family="Inter, -apple-system, 'Segoe UI', Roboto, sans-serif" font-size="11" font-weight="600" letter-spacing="0.6" fill="#6B6B6B" text-anchor="start">ATTRIBUTES</text><text x="704.00" y="339.36" font-family="Inter, -apple-system, 'Segoe UI', Roboto, sans-serif" font-size="12" font-weight="400" letter-spacing="0.0" fill="#6B6B6B" text-anchor="start">Main category</text><text x="704.00" y="358.92" font-family="Inter, -apple-system, 'Segoe UI', Roboto, sans-serif" font-size="14" font-weight="540" letter-spacing="0.0" fill="#1B1C1A" text-anchor="start">Bridal Dresses</text><text x="882.00" y="339.36" font-family="Inter, -apple-system, 'Segoe UI', Roboto, sans-serif" font-size="12" font-weight="400" letter-spacing="0.0" fill="#6B6B6B" text-anchor="start">Sub-category</text><text x="882.00" y="358.92" font-family="Inter, -apple-system, 'Segoe UI', Roboto, sans-serif" font-size="14" font-weight="540" letter-spacing="0.0" fill="#1B1C1A" text-anchor="start">A-Line</text><text x="1060.00" y="339.36" font-family="Inter, -apple-system, 'Segoe UI', Roboto, sans-serif" font-size="12" font-weight="400" letter-spacing="0.0" fill="#6B6B6B" text-anchor="start">Item type</text><text x="1060.00" y="358.92" font-family="Inter, -apple-system, 'Segoe UI', Roboto, sans-serif" font-size="14" font-weight="540" letter-spacing="0.0" fill="#1B1C1A" text-anchor="start">Wedding Dress</text><text x="1238.00" y="339.36" font-family="Inter, -apple-system, 'Segoe UI', Roboto, sans-serif" font-size="12" font-weight="400" letter-spacing="0.0" fill="#6B6B6B" text-anchor="start">Model</text><text x="1238.00" y="358.92" font-family="Inter, -apple-system, 'Segoe UI', Roboto, sans-serif" font-size="14" font-weight="540" letter-spacing="0.0" fill="#1B1C1A" text-anchor="start">Elegance 2026</text><text x="704.00" y="393.36" font-family="Inter, -apple-system, 'Segoe UI', Roboto, sans-serif" font-size="12" font-weight="400" letter-spacing="0.0" fill="#6B6B6B" text-anchor="start">Size</text><text x="704.00" y="412.92" font-family="Inter, -apple-system, 'Segoe UI', Roboto, sans-serif" font-size="14" font-weight="540" letter-spacing="0.0" fill="#1B1C1A" text-anchor="start">M</text><text x="882.00" y="393.36" font-family="Inter, -apple-system, 'Segoe UI', Roboto, sans-serif" font-size="12" font-weight="400" letter-spacing="0.0" fill="#6B6B6B" text-anchor="start">Colour</text><text x="882.00" y="412.92" font-family="Inter, -apple-system, 'Segoe UI', Roboto, sans-serif" font-size="14" font-weight="540" letter-spacing="0.0" fill="#1B1C1A" text-anchor="start">Ivory white</text><text x="1060.00" y="393.36" font-family="Inter, -apple-system, 'Segoe UI', Roboto, sans-serif" font-size="12" font-weight="400" letter-spacing="0.0" fill="#6B6B6B" text-anchor="start">Fabric</text><text x="1060.00" y="412.92" font-family="Inter, -apple-system, 'Segoe UI', Roboto, sans-serif" font-size="14" font-weight="540" letter-spacing="0.0" fill="#1B1C1A" text-anchor="start">Silk mikado + lace</text><text x="1238.00" y="393.36" font-family="Inter, -apple-system, 'Segoe UI', Roboto, sans-serif" font-size="12" font-weight="400" letter-spacing="0.0" fill="#6B6B6B" text-anchor="start">Season</text><text x="1238.00" y="412.92" font-family="Inter, -apple-system, 'Segoe UI', Roboto, sans-serif" font-size="14" font-weight="540" letter-spacing="0.0" fill="#1B1C1A" text-anchor="start">Spring 2026</text><text x="704.00" y="447.36" font-family="Inter, -apple-system, 'Segoe UI', Roboto, sans-serif" font-size="12" font-weight="400" letter-spacing="0.0" fill="#6B6B6B" text-anchor="start">Cleaning buffer</text><text x="704.00" y="466.92" font-family="Inter, -apple-system, 'Segoe UI', Roboto, sans-serif" font-size="14" font-weight="540" letter-spacing="0.0" fill="#1B1C1A" text-anchor="start">2 days</text><text x="882.00" y="447.36" font-family="Inter, -apple-system, 'Segoe UI', Roboto, sans-serif" font-size="12" font-weight="400" letter-spacing="0.0" fill="#6B6B6B" text-anchor="start">Expected rental uses</text><text x="882.00" y="466.92" font-family="Inter, -apple-system, 'Segoe UI', Roboto, sans-serif" font-size="14" font-weight="540" letter-spacing="0.0" fill="#1B1C1A" text-anchor="start">20</text><text x="1060.00" y="447.36" font-family="Inter, -apple-system, 'Segoe UI', Roboto, sans-serif" font-size="12" font-weight="400" letter-spacing="0.0" fill="#6B6B6B" text-anchor="start">Reorder level</text><text x="1060.00" y="466.92" font-family="Inter, -apple-system, 'Segoe UI', Roboto, sans-serif" font-size="14" font-weight="540" letter-spacing="0.0" fill="#1B1C1A" text-anchor="start">1</text><text x="1238.00" y="447.36" font-family="Inter, -apple-system, 'Segoe UI', Roboto, sans-serif" font-size="12" font-weight="400" letter-spacing="0.0" fill="#6B6B6B" text-anchor="start">Quality</text><text x="1238.00" y="466.92" font-family="Inter, -apple-system, 'Segoe UI', Roboto, sans-serif" font-size="14" font-weight="540" letter-spacing="0.0" fill="#1B1C1A" text-anchor="start">high</text><text x="704.00" y="508.58" font-family="Inter, -apple-system, 'Segoe UI', Roboto, sans-serif" font-size="11" font-weight="600" letter-spacing="0.6" fill="#6B6B6B" text-anchor="start">CHANNELS</text><rect x="704.00" y="522.00" width="704.00" height="152.00" fill="#FFFFFF" rx="16" stroke="#E8E4DF" stroke-width="1" filter="url(#cardShadow)"/><rect x="705.00" y="523.00" width="702.00" height="44.00" fill="#F5F3F0"/><text x="721.00" y="547.08" font-family="Inter, -apple-system, 'Segoe UI', Roboto, sans-serif" font-size="11" font-weight="600" letter-spacing="0.6" fill="#6B6B6B" text-anchor="start">CHANNEL</text><text x="824.57" y="547.08" font-family="Inter, -apple-system, 'Segoe UI', Roboto, sans-serif" font-size="11" font-weight="600" letter-spacing="0.6" fill="#6B6B6B" text-anchor="start">ENABLED BY</text><text x="1137.82" y="547.08" font-family="Inter, -apple-system, 'Segoe UI', Roboto, sans-serif" font-size="11" font-weight="600" letter-spacing="0.6" fill="#6B6B6B" text-anchor="end">PRICE</text><text x="1252.90" y="547.08" font-family="Inter, -apple-system, 'Segoe UI', Roboto, sans-serif" font-size="11" font-weight="600" letter-spacing="0.6" fill="#6B6B6B" text-anchor="end">DEPOSIT</text><text x="1391.00" y="547.08" font-family="Inter, -apple-system, 'Segoe UI', Roboto, sans-serif" font-size="11" font-weight="600" letter-spacing="0.6" fill="#6B6B6B" text-anchor="end">LATE FEE</text><line x1="705.00" y1="567.00" x2="1407.00" y2="567.00" stroke="#EAE8E5" stroke-width="1"/><text x="721.00" y="595.92" font-family="Inter, -apple-system, 'Segoe UI', Roboto, sans-serif" font-size="14" font-weight="400" letter-spacing="0.0" fill="#4A7C59" text-anchor="start">Sale</text><text x="824.57" y="595.92" font-family="Inter, -apple-system, 'Segoe UI', Roboto, sans-serif" font-size="14" font-weight="400" letter-spacing="0.0" fill="#4F4440" text-anchor="start">sale price is set</text><text x="1137.82" y="595.92" font-family="Inter, -apple-system, 'Segoe UI', Roboto, sans-serif" font-size="14" font-weight="400" letter-spacing="0.0" fill="#1B1C1A" text-anchor="end" direction="ltr" unicode-bidi="isolate" style="font-variant-numeric:tabular-nums">AFN 48,000</text><text x="1252.90" y="595.92" font-family="Inter, -apple-system, 'Segoe UI', Roboto, sans-serif" font-size="14" font-weight="400" letter-spacing="0.0" fill="#6B6B6B" text-anchor="end" direction="ltr" unicode-bidi="isolate" style="font-variant-numeric:tabular-nums">—</text><text x="1391.00" y="595.92" font-family="Inter, -apple-system, 'Segoe UI', Roboto, sans-serif" font-size="14" font-weight="400" letter-spacing="0.0" fill="#6B6B6B" text-anchor="end" direction="ltr" unicode-bidi="isolate" style="font-variant-numeric:tabular-nums">—</text><line x1="705.00" y1="619.00" x2="1407.00" y2="619.00" stroke="#EAE8E5" stroke-width="1"/><text x="721.00" y="647.92" font-family="Inter, -apple-system, 'Segoe UI', Roboto, sans-serif" font-size="14" font-weight="400" letter-spacing="0.0" fill="#795B36" text-anchor="start">Rental</text><text x="824.57" y="647.92" font-family="Inter, -apple-system, 'Segoe UI', Roboto, sans-serif" font-size="14" font-weight="400" letter-spacing="0.0" fill="#4F4440" text-anchor="start">rental price is set</text><text x="1137.82" y="647.92" font-family="Inter, -apple-system, 'Segoe UI', Roboto, sans-serif" font-size="14" font-weight="400" letter-spacing="0.0" fill="#1B1C1A" text-anchor="end" direction="ltr" unicode-bidi="isolate" style="font-variant-numeric:tabular-nums">AFN 9,500</text><text x="1252.90" y="647.92" font-family="Inter, -apple-system, 'Segoe UI', Roboto, sans-serif" font-size="14" font-weight="400" letter-spacing="0.0" fill="#1B1C1A" text-anchor="end" direction="ltr" unicode-bidi="isolate" style="font-variant-numeric:tabular-nums">AFN 5,000</text><text x="1391.00" y="647.92" font-family="Inter, -apple-system, 'Segoe UI', Roboto, sans-serif" font-size="14" font-weight="400" letter-spacing="0.0" fill="#1B1C1A" text-anchor="end" direction="ltr" unicode-bidi="isolate" style="font-variant-numeric:tabular-nums">AFN 500 / day</text><line x1="705.00" y1="671.00" x2="1407.00" y2="671.00" stroke="#EAE8E5" stroke-width="1"/><text x="704.00" y="706.58" font-family="Inter, -apple-system, 'Segoe UI', Roboto, sans-serif" font-size="11" font-weight="600" letter-spacing="0.6" fill="#6B6B6B" text-anchor="start">STOCK BY WAREHOUSE</text><rect x="704.00" y="720.00" width="704.00" height="208.00" fill="#FFFFFF" rx="16" stroke="#E8E4DF" stroke-width="1" filter="url(#cardShadow)"/><rect x="705.00" y="721.00" width="702.00" height="44.00" fill="#F5F3F0"/><text x="721.00" y="745.08" font-family="Inter, -apple-system, 'Segoe UI', Roboto, sans-serif" font-size="11" font-weight="600" letter-spacing="0.6" fill="#6B6B6B" text-anchor="start">WAREHOUSE</text><text x="906.71" y="745.08" font-family="Inter, -apple-system, 'Segoe UI', Roboto, sans-serif" font-size="11" font-weight="600" letter-spacing="0.6" fill="#6B6B6B" text-anchor="end">ON HAND</text><text x="982.24" y="745.08" font-family="Inter, -apple-system, 'Segoe UI', Roboto, sans-serif" font-size="11" font-weight="600" letter-spacing="0.6" fill="#6B6B6B" text-anchor="end">ON RENT</text><text x="1057.77" y="745.08" font-family="Inter, -apple-system, 'Segoe UI', Roboto, sans-serif" font-size="11" font-weight="600" letter-spacing="0.6" fill="#6B6B6B" text-anchor="end">OWNED</text><text x="1119.97" y="745.08" font-family="Inter, -apple-system, 'Segoe UI', Roboto, sans-serif" font-size="11" font-weight="600" letter-spacing="0.6" fill="#6B6B6B" text-anchor="end">RSVD</text><text x="1186.62" y="745.08" font-family="Inter, -apple-system, 'Segoe UI', Roboto, sans-serif" font-size="11" font-weight="600" letter-spacing="0.6" fill="#6B6B6B" text-anchor="end">AVAIL</text><text x="1279.92" y="745.08" font-family="Inter, -apple-system, 'Segoe UI', Roboto, sans-serif" font-size="11" font-weight="600" letter-spacing="0.6" fill="#6B6B6B" text-anchor="end">AVG COST</text><text x="1391.00" y="745.08" font-family="Inter, -apple-system, 'Segoe UI', Roboto, sans-serif" font-size="11" font-weight="600" letter-spacing="0.6" fill="#6B6B6B" text-anchor="end">WORTH</text><line x1="705.00" y1="765.00" x2="1407.00" y2="765.00" stroke="#EAE8E5" stroke-width="1"/><text x="721.00" y="793.92" font-family="Inter, -apple-system, 'Segoe UI', Roboto, sans-serif" font-size="14" font-weight="400" letter-spacing="0.0" fill="#4F4440" text-anchor="start">Main Store</text><text x="906.71" y="793.92" font-family="Inter, -apple-system, 'Segoe UI', Roboto, sans-serif" font-size="14" font-weight="400" letter-spacing="0.0" fill="#1B1C1A" text-anchor="end" direction="ltr" unicode-bidi="isolate" style="font-variant-numeric:tabular-nums">2</text><text x="982.24" y="793.92" font-family="Inter, -apple-system, 'Segoe UI', Roboto, sans-serif" font-size="14" font-weight="400" letter-spacing="0.0" fill="#1B1C1A" text-anchor="end" direction="ltr" unicode-bidi="isolate" style="font-variant-numeric:tabular-nums">1</text><text x="1057.77" y="793.92" font-family="Inter, -apple-system, 'Segoe UI', Roboto, sans-serif" font-size="14" font-weight="400" letter-spacing="0.0" fill="#1B1C1A" text-anchor="end" direction="ltr" unicode-bidi="isolate" style="font-variant-numeric:tabular-nums">3</text><text x="1119.97" y="793.92" font-family="Inter, -apple-system, 'Segoe UI', Roboto, sans-serif" font-size="14" font-weight="400" letter-spacing="0.0" fill="#1B1C1A" text-anchor="end" direction="ltr" unicode-bidi="isolate" style="font-variant-numeric:tabular-nums">1</text><text x="1186.62" y="793.92" font-family="Inter, -apple-system, 'Segoe UI', Roboto, sans-serif" font-size="14" font-weight="400" letter-spacing="0.0" fill="#4A7C59" text-anchor="end" direction="ltr" unicode-bidi="isolate" style="font-variant-numeric:tabular-nums">1</text><text x="1279.92" y="793.92" font-family="Inter, -apple-system, 'Segoe UI', Roboto, sans-serif" font-size="14" font-weight="400" letter-spacing="0.0" fill="#1B1C1A" text-anchor="end" direction="ltr" unicode-bidi="isolate" style="font-variant-numeric:tabular-nums">31,200</text><text x="1391.00" y="793.92" font-family="Inter, -apple-system, 'Segoe UI', Roboto, sans-serif" font-size="14" font-weight="400" letter-spacing="0.0" fill="#1B1C1A" text-anchor="end" direction="ltr" unicode-bidi="isolate" style="font-variant-numeric:tabular-nums">93,600</text><line x1="705.00" y1="817.00" x2="1407.00" y2="817.00" stroke="#EAE8E5" stroke-width="1"/><text x="721.00" y="845.92" font-family="Inter, -apple-system, 'Segoe UI', Roboto, sans-serif" font-size="14" font-weight="400" letter-spacing="0.0" fill="#4F4440" text-anchor="start">Shar-e-Naw</text><text x="906.71" y="845.92" font-family="Inter, -apple-system, 'Segoe UI', Roboto, sans-serif" font-size="14" font-weight="400" letter-spacing="0.0" fill="#1B1C1A" text-anchor="end" direction="ltr" unicode-bidi="isolate" style="font-variant-numeric:tabular-nums">1</text><text x="982.24" y="845.92" font-family="Inter, -apple-system, 'Segoe UI', Roboto, sans-serif" font-size="14" font-weight="400" letter-spacing="0.0" fill="#1B1C1A" text-anchor="end" direction="ltr" unicode-bidi="isolate" style="font-variant-numeric:tabular-nums">0</text><text x="1057.77" y="845.92" font-family="Inter, -apple-system, 'Segoe UI', Roboto, sans-serif" font-size="14" font-weight="400" letter-spacing="0.0" fill="#1B1C1A" text-anchor="end" direction="ltr" unicode-bidi="isolate" style="font-variant-numeric:tabular-nums">1</text><text x="1119.97" y="845.92" font-family="Inter, -apple-system, 'Segoe UI', Roboto, sans-serif" font-size="14" font-weight="400" letter-spacing="0.0" fill="#1B1C1A" text-anchor="end" direction="ltr" unicode-bidi="isolate" style="font-variant-numeric:tabular-nums">0</text><text x="1186.62" y="845.92" font-family="Inter, -apple-system, 'Segoe UI', Roboto, sans-serif" font-size="14" font-weight="400" letter-spacing="0.0" fill="#4A7C59" text-anchor="end" direction="ltr" unicode-bidi="isolate" style="font-variant-numeric:tabular-nums">1</text><text x="1279.92" y="845.92" font-family="Inter, -apple-system, 'Segoe UI', Roboto, sans-serif" font-size="14" font-weight="400" letter-spacing="0.0" fill="#1B1C1A" text-anchor="end" direction="ltr" unicode-bidi="isolate" style="font-variant-numeric:tabular-nums">31,200</text><text x="1391.00" y="845.92" font-family="Inter, -apple-system, 'Segoe UI', Roboto, sans-serif" font-size="14" font-weight="400" letter-spacing="0.0" fill="#1B1C1A" text-anchor="end" direction="ltr" unicode-bidi="isolate" style="font-variant-numeric:tabular-nums">31,200</text><line x1="705.00" y1="869.00" x2="1407.00" y2="869.00" stroke="#EAE8E5" stroke-width="1"/><text x="721.00" y="897.92" font-family="Inter, -apple-system, 'Segoe UI', Roboto, sans-serif" font-size="14" font-weight="400" letter-spacing="0.0" fill="#1B1C1A" text-anchor="start">TOTAL</text><text x="906.71" y="897.92" font-family="Inter, -apple-system, 'Segoe UI', Roboto, sans-serif" font-size="14" font-weight="400" letter-spacing="0.0" fill="#1B1C1A" text-anchor="end" direction="ltr" unicode-bidi="isolate" style="font-variant-numeric:tabular-nums">3</text><text x="982.24" y="897.92" font-family="Inter, -apple-system, 'Segoe UI', Roboto, sans-serif" font-size="14" font-weight="400" letter-spacing="0.0" fill="#795B36" text-anchor="end" direction="ltr" unicode-bidi="isolate" style="font-variant-numeric:tabular-nums">1</text><text x="1057.77" y="897.92" font-family="Inter, -apple-system, 'Segoe UI', Roboto, sans-serif" font-size="14" font-weight="400" letter-spacing="0.0" fill="#1B1C1A" text-anchor="end" direction="ltr" unicode-bidi="isolate" style="font-variant-numeric:tabular-nums">4</text><text x="1119.97" y="897.92" font-family="Inter, -apple-system, 'Segoe UI', Roboto, sans-serif" font-size="14" font-weight="400" letter-spacing="0.0" fill="#C4A035" text-anchor="end" direction="ltr" unicode-bidi="isolate" style="font-variant-numeric:tabular-nums">1</text><text x="1186.62" y="897.92" font-family="Inter, -apple-system, 'Segoe UI', Roboto, sans-serif" font-size="14" font-weight="400" letter-spacing="0.0" fill="#4A7C59" text-anchor="end" direction="ltr" unicode-bidi="isolate" style="font-variant-numeric:tabular-nums">2</text><text x="1279.92" y="897.92" font-family="Inter, -apple-system, 'Segoe UI', Roboto, sans-serif" font-size="14" font-weight="400" letter-spacing="0.0" fill="#1B1C1A" text-anchor="end" direction="ltr" unicode-bidi="isolate" style="font-variant-numeric:tabular-nums">31,200</text><text x="1391.00" y="897.92" font-family="Inter, -apple-system, 'Segoe UI', Roboto, sans-serif" font-size="14" font-weight="400" letter-spacing="0.0" fill="#73594D" text-anchor="end" direction="ltr" unicode-bidi="isolate" style="font-variant-numeric:tabular-nums">AFN 124,800</text><line x1="705.00" y1="921.00" x2="1407.00" y2="921.00" stroke="#EAE8E5" stroke-width="1"/><rect x="704.00" y="944.00" width="704.00" height="48.00" fill="#F0EAE6" rx="12"/><text x="724.00" y="969.14" font-family="Inter, -apple-system, 'Segoe UI', Roboto, sans-serif" font-size="13" font-weight="400" letter-spacing="0.0" fill="#73594D" text-anchor="start">Owned 4 = on hand 3 + on rent 1   ·   Available 2 = on hand 3 − reserved 1</text></svg>